HIERARCHY
ROOT Hips
{
 OFFSET 0.000000 0.000000 0.000000
 CHANNELS 6 Xposition Yposition Zposition Yrotation Xrotation Zrotation
 JOINT Chest
 {
  OFFSET 0.000000 9.585900 0.002600
  CHANNELS 3 Yrotation Xrotation Zrotation
  JOINT Chest2
  {
   OFFSET 0.000000 9.601200 -0.005300
   CHANNELS 3 Yrotation Xrotation Zrotation
   JOINT Chest3
   {
    OFFSET 0.000000 9.561800 0.000000
    CHANNELS 3 Yrotation Xrotation Zrotation
    JOINT Chest4
    {
     OFFSET 0.000000 9.552100 0.000000
     CHANNELS 3 Yrotation Xrotation Zrotation
     JOINT Neck
     {
      OFFSET 0.000000 14.453000 0.000000
      CHANNELS 3 Yrotation Xrotation Zrotation
      JOINT Head
      {
       OFFSET 0.000000 8.936500 -0.011300
       CHANNELS 3 Yrotation Xrotation Zrotation
       End Site
       {
        OFFSET 0.000000 17.073600 -0.006000
       }
      }
     }
     JOINT RightCollar
     {
      OFFSET -2.921100 9.558500 0.000000
      CHANNELS 3 Yrotation Xrotation Zrotation
      JOINT RightShoulder
      {
       OFFSET -13.519700 0.000000 0.000000
       CHANNELS 3 Yrotation Xrotation Zrotation
       JOINT RightElbow
       {
        OFFSET 0.000000 -29.696600 0.000000
        CHANNELS 3 Yrotation Xrotation Zrotation
        JOINT RightWrist
        {
         OFFSET 0.000000 -24.004700 0.000000
         CHANNELS 3 Yrotation Xrotation Zrotation
         End Site
         {
          OFFSET 0.000000 -17.728500 0.000000
         }
        }
       }
      }
     }
     JOINT LeftCollar
     {
      OFFSET 2.921100 9.558500 0.000000
      CHANNELS 3 Yrotation Xrotation Zrotation
      JOINT LeftShoulder
      {
       OFFSET 13.519700 0.000000 0.000000
       CHANNELS 3 Yrotation Xrotation Zrotation
       JOINT LeftElbow
       {
        OFFSET 0.000000 -29.696600 0.000000
        CHANNELS 3 Yrotation Xrotation Zrotation
        JOINT LeftWrist
        {
         OFFSET 0.000000 -24.004700 0.000000
         CHANNELS 3 Yrotation Xrotation Zrotation
         End Site
         {
          OFFSET 0.000000 -17.728500 0.000000
         }
        }
       }
      }
     }
    }
   }
  }
 }
 JOINT RightHip
 {
  OFFSET -7.771700 -0.012900 -0.001300
  CHANNELS 3 Yrotation Xrotation Zrotation
  JOINT RightKnee
  {
   OFFSET 0.000000 -40.869800 0.001200
   CHANNELS 3 Yrotation Xrotation Zrotation
   JOINT RightAnkle
   {
    OFFSET 0.000000 -39.717900 0.002100
    CHANNELS 3 Yrotation Xrotation Zrotation
    JOINT RightToe
    {
     OFFSET 0.000000 -4.965400 11.033500
     CHANNELS 3 Yrotation Xrotation Zrotation
     End Site
     {
      OFFSET 0.000000 -1.423100 5.872300
     }
    }
   }
  }
 }
 JOINT LeftHip
 {
  OFFSET 7.771700 -0.012900 -0.001300
  CHANNELS 3 Yrotation Xrotation Zrotation
  JOINT LeftKnee
  {
   OFFSET 0.000000 -40.869800 0.001200
   CHANNELS 3 Yrotation Xrotation Zrotation
   JOINT LeftAnkle
   {
    OFFSET 0.000000 -39.717900 0.002100
    CHANNELS 3 Yrotation Xrotation Zrotation
    JOINT LeftToe
    {
     OFFSET 0.000000 -4.965400 11.033500
     CHANNELS 3 Yrotation Xrotation Zrotation
     End Site
     {
      OFFSET 0.000000 -1.423100 5.872300
     }
    }
   }
  }
 }
}
MOTION
Frames: 15
Frame Time: 0.008333
-1.182936 53.980449 35.949912 169.564631 -40.818857 -4.014896 4.149661 21.184397 3.535792 0.483439 2.894996 0.402840 0.732731 4.638198 0.613831 3.421281 18.044989 2.970048 1.369847 14.623705 -0.525187 2.732532 -8.680725 -1.544795 -5.639222 0.297669 -3.431007 -2.539510 -0.458994 6.238790 143.736482 -78.498324 -131.815700 2.445240 8.643429 4.394089 -2.409492 1.005238 0.113874 8.923176 -0.305030 0.360931 137.555854 -77.747825 -155.922786 -5.423022 1.105020 11.333654 -4.050504 -41.026552 6.591075 -129.521105 87.289439 -124.587996 -0.336980 -8.081555 -2.140637 -0.046154 0.023185 -0.031742 -1.957158 -36.883307 8.833462 70.549923 83.543473 60.843461 -3.696320 -10.784070 9.201639 -0.056836 -0.044110 0.022075
-1.172483 53.958081 35.916924 169.660016 -40.816087 -4.058515 4.128708 21.229993 3.576985 0.469431 2.892691 0.398532 0.736850 4.652648 0.621271 3.384266 18.026950 2.959453 1.397014 14.682022 -0.534216 2.754456 -8.632712 -1.608953 -5.618634 0.362174 -3.374657 -2.539203 -0.529513 6.188014 141.848475 -77.952361 -130.030814 2.977859 9.063608 4.922286 -2.434499 1.047089 0.127877 8.888313 -0.350102 0.404471 137.838678 -77.769462 -156.166609 -5.398053 0.787801 11.643891 -3.953261 -41.037233 6.451816 -131.175222 87.286868 -126.124438 -0.362588 -8.147190 -2.122003 -0.024766 0.015342 -0.041492 -2.000129 -36.884175 8.833449 70.833693 83.561504 61.115521 -3.730584 -10.823901 9.214888 -0.048546 -0.024290 0.023275
-1.162956 53.923317 35.884094 169.708995 -40.817780 -4.058818 4.115078 21.269588 3.589430 0.468390 2.899123 0.401813 0.758874 4.690229 0.645878 3.376428 18.068900 3.000345 1.370160 14.656467 -0.604606 2.781075 -8.579826 -1.672867 -5.646669 0.314697 -3.387553 -2.559336 -0.600141 6.140619 140.220884 -77.458265 -128.458460 3.550558 9.444933 5.471755 -2.498031 0.997208 0.090449 8.837866 -0.381897 0.429593 138.334953 -77.802081 -156.596136 -5.383853 0.450362 11.982330 -3.817908 -41.001965 6.310091 -132.214877 87.320592 -127.047183 -0.405744 -8.200885 -2.118610 0.002555 -0.001408 -0.046029 -1.996475 -36.885948 8.813953 71.161423 83.574014 61.435602 -3.757371 -10.875374 9.228919 -0.049472 0.004351 0.020319
-1.157760 53.871973 35.852227 169.715221 -40.812087 -3.993991 4.098419 21.286244 3.537808 0.468003 2.902046 0.403329 0.759945 4.694283 0.648883 3.397894 18.121149 3.052317 1.368884 14.670088 -0.649554 2.812008 -8.523291 -1.734847 -5.657348 0.306548 -3.389663 -2.540376 -0.633633 6.117490 138.852598 -76.973691 -127.157858 4.097551 9.749081 6.012997 -2.541312 0.983124 0.074063 8.783655 -0.397577 0.441211 139.045024 -77.838672 -157.221006 -5.381418 0.127941 12.319698 -3.645729 -40.935289 6.144382 -132.837838 87.395939 -127.579325 -0.431918 -8.303863 -2.154160 -0.001116 0.024342 -0.020996 -1.936384 -36.903991 8.748135 71.493176 83.586907 61.759276 -3.781781 -10.957094 9.244096 -0.051589 0.067207 0.016318
-1.152970 53.804164 35.822365 169.725742 -40.795503 -3.915817 4.069515 21.295256 3.467363 0.467599 2.904492 0.404621 0.791220 4.762649 0.705226 3.360260 18.088615 3.028952 1.382248 14.702210 -0.678543 2.847153 -8.462461 -1.793309 -5.658026 0.317999 -3.389010 -2.482415 -0.644419 6.127801 137.651947 -76.515370 -126.037467 4.554601 9.948988 6.503825 -2.571621 0.984859 0.067126 8.735857 -0.397997 0.445419 139.912128 -77.874060 -157.998063 -5.389286 -0.168604 12.644219 -3.505962 -40.831416 5.994389 -132.882802 87.511864 -127.576148 -0.477465 -8.478890 -2.214116 -0.010061 0.119688 0.030579 -1.871802 -36.939229 8.663477 71.861081 83.595385 62.118900 -3.825675 -11.064141 9.262156 -0.029839 0.168701 0.005709
-1.153522 53.720647 35.795887 169.714440 -40.750547 -3.779068 4.074704 21.350110 3.417225 0.464431 2.904465 0.406912 0.772118 4.736953 0.685837 3.337647 18.074137 3.021747 1.399082 14.736174 -0.704714 2.887596 -8.398138 -1.847715 -5.666664 0.298188 -3.410605 -2.462640 -0.665101 6.125510 136.664100 -76.184543 -125.059014 4.890452 10.048732 6.909741 -2.594178 0.985903 0.055714 8.697415 -0.388804 0.449715 140.828099 -77.901663 -158.828606 -5.408133 -0.433658 12.944591 -3.368997 -40.777376 5.835317 -132.509337 87.571278 -127.208125 -0.484900 -8.632357 -2.261118 -0.002256 0.166059 0.070717 -1.764842 -37.010393 8.521536 72.292328 83.595082 62.539896 -3.884484 -11.192839 9.278870 -0.027443 0.283964 0.006618
-1.162663 53.627840 35.770711 169.725757 -40.687238 -3.593880 4.019065 21.378182 3.270862 0.461375 2.901478 0.407438 0.762058 4.718937 0.675538 3.324013 18.068604 3.023154 1.419026 14.769427 -0.726675 2.932191 -8.335081 -1.895265 -5.657171 0.328401 -3.411029 -2.482401 -0.745104 6.097396 135.882705 -75.938461 -124.242737 5.100795 10.060315 7.214560 -2.611231 0.972775 0.037098 8.671891 -0.364709 0.468103 141.694096 -77.910363 -159.621690 -5.441964 -0.654899 13.213337 -3.246552 -40.752538 5.608541 -133.826166 87.682937 -128.556774 -0.561100 -8.807664 -2.323066 0.021676 0.198518 0.104595 -1.629621 -37.101882 8.304511 72.708169 83.594199 62.946514 -3.999213 -11.376297 9.278111 0.017765 0.465522 0.033695
-1.168601 53.533500 35.748300 169.751021 -40.618410 -3.430750 3.951980 21.389896 3.125274 0.447473 2.865552 0.386397 0.771167 4.747267 0.695357 3.310330 18.062637 3.020256 1.441138 14.799505 -0.742843 2.978802 -8.278020 -1.932855 -5.647018 0.352782 -3.413317 -2.463053 -0.814005 6.085920 135.228704 -75.741159 -123.566659 5.198875 9.997156 7.407795 -2.622904 0.964563 0.028619 8.656588 -0.361776 0.473237 142.474889 -77.918028 -160.345778 -5.487249 -0.826342 13.447157 -3.194675 -40.742516 5.428974 -135.145301 87.770980 -129.937064 -0.620736 -8.981072 -2.387095 0.031757 0.233516 0.132784 -1.514618 -37.195101 8.104809 73.091729 83.590708 63.322848 -4.125770 -11.544046 9.267261 0.086804 0.638867 0.066975
-1.177795 53.439013 35.731586 169.783622 -40.514740 -3.256901 3.870275 21.367541 2.959926 0.451247 2.879462 0.395703 0.750370 4.697340 0.664645 3.303644 18.059822 3.017668 1.478419 14.852544 -0.737966 3.023703 -8.229135 -1.960182 -5.644063 0.354465 -3.417734 -2.344342 -0.829284 6.096463 134.650242 -75.584883 -123.020231 5.214524 9.880063 7.487988 -2.619591 0.991540 0.042453 8.643125 -0.396962 0.449610 143.191053 -77.950030 -161.019903 -5.533105 -0.947685 13.642858 -3.181476 -40.796644 5.258473 -135.923993 87.789227 -130.812390 -0.622539 -9.142007 -2.434386 0.031915 0.274025 0.155253 -1.399044 -37.322144 7.873422 73.576687 83.541447 63.806917 -4.283448 -11.713141 9.233586 0.174772 0.825164 0.105825
-1.184836 53.351769 35.717399 169.803248 -40.414825 -3.093786 3.804135 21.343393 2.811746 0.456325 2.894725 0.405441 0.748081 4.694236 0.662944 3.295223 18.056003 3.011174 1.490770 14.859251 -0.751784 3.061501 -8.190079 -1.977480 -5.659727 0.309586 -3.435363 -2.234119 -0.844584 6.094128 134.241436 -75.489407 -122.619026 5.184301 9.724677 7.461077 -2.632790 0.964486 0.032068 8.636962 -0.387310 0.475892 143.784517 -77.914869 -161.588913 -5.576614 -1.019647 13.802191 -3.197668 -40.871602 5.116224 -137.163592 87.798806 -132.151844 -0.630182 -9.265561 -2.475206 0.023906 0.322985 0.175841 -1.286381 -37.442302 7.661571 73.824028 83.532363 64.057421 -4.380976 -11.857446 9.211736 0.231897 0.979324 0.137513
-1.190645 53.275045 35.703390 169.817499 -40.337890 -2.942559 3.748830 21.337724 2.677326 0.445483 2.864659 0.388635 0.765844 4.738018 0.686946 3.294144 18.055215 3.005503 1.498592 14.860820 -0.759678 3.091086 -8.161889 -1.983962 -5.662144 0.280392 -3.435903 -2.151526 -0.872329 6.077357 134.000592 -75.443522 -122.360736 5.140690 9.535582 7.325506 -2.646657 0.939146 0.025881 8.649579 -0.386534 0.502794 144.268185 -77.871068 -162.074906 -5.619644 -1.049777 13.926888 -3.221154 -40.934772 4.985950 -138.506211 87.797079 -133.586829 -0.636708 -9.383127 -2.516143 0.039003 0.248549 0.143571 -1.179305 -37.532205 7.467810 73.976024 83.536297 64.211197 -4.460272 -11.988439 9.199259 0.283600 1.114561 0.163535
-1.200477 53.204474 35.693559 169.848438 -40.245309 -2.791658 3.677754 21.314347 2.529188 0.432546 2.838217 0.372765 0.773530 4.751640 0.693289 3.308562 18.070846 3.007543 1.511798 14.870898 -0.755543 3.114019 -8.142936 -1.980922 -5.664513 0.265508 -3.424899 -2.058761 -0.894903 6.061841 133.899627 -75.434836 -122.230115 5.101228 9.310208 7.080931 -2.656062 0.931265 0.032239 8.722972 -0.368565 0.563407 144.536690 -77.783174 -162.413286 -5.662063 -1.051034 14.019535 -3.233954 -41.031810 4.841725 -138.589521 87.725526 -133.765502 -0.582660 -9.488306 -2.536469 0.036959 0.212832 0.127968 -1.080881 -37.631959 7.258286 74.072651 83.513569 64.307624 -4.566623 -12.100169 9.180856 0.367483 1.247179 0.191240
-1.213798 53.138085 35.689508 169.902175 -40.125388 -2.647313 3.588813 21.261403 2.370998 0.458369 2.896184 0.402908 0.748679 4.696527 0.661194 3.314796 18.073354 3.002212 1.522773 14.876867 -0.748846 3.131943 -8.131722 -1.972342 -5.665450 0.252816 -3.414362 -1.964657 -0.912479 6.054672 133.904352 -75.450242 -122.195557 5.064775 9.043927 6.738541 -2.668553 0.925834 0.044247 8.776753 -0.383497 0.595386 144.764059 -77.735115 -162.701920 -5.703144 -1.030483 14.092772 -3.232419 -41.182681 4.680975 -138.423824 87.621333 -133.692272 -0.514891 -9.535641 -2.522724 0.023185 0.158164 0.109039 -0.997792 -37.754467 7.039232 74.078785 83.469798 64.312060 -4.702073 -12.196434 9.154035 0.458966 1.380131 0.229170
-1.221226 53.081208 35.685668 169.933705 -40.035144 -2.524894 3.537638 21.231457 2.254825 0.442247 2.872148 0.387179 0.777433 4.737967 0.681646 3.311264 18.062349 2.990878 1.531694 14.879385 -0.741604 3.145803 -8.126953 -1.962046 -5.636383 0.285564 -3.393414 -1.897685 -0.966047 6.041097 133.988867 -75.478726 -122.237025 5.019041 8.728862 6.313512 -2.699771 0.894248 0.047404 8.829412 -0.390370 0.625913 144.778797 -77.701802 -162.774117 -5.781111 -0.994605 14.164423 -3.207367 -41.303864 4.556353 -137.995422 87.518306 -133.336998 -0.457092 -9.565996 -2.499524 0.007319 0.106466 0.092220 -0.926534 -37.846951 6.870182 74.077362 83.457617 64.303899 -4.790509 -12.280323 9.140542 0.528631 1.485244 0.250480
-1.219469 53.027893 35.688560 169.866201 -39.928087 -2.395396 3.587656 21.173560 2.199602 0.452080 2.886916 0.394208 0.748481 4.702773 0.659558 3.346447 18.089921 3.003612 1.537544 14.879535 -0.734530 3.153996 -8.126641 -1.950943 -5.613445 0.291025 -3.383818 -1.826232 -0.982593 6.037782 134.151129 -75.510023 -122.353178 4.957487 8.362482 5.824537 -2.736492 0.862697 0.049351 8.846464 -0.406347 0.634444 145.125726 -77.697339 -163.132249 -5.802743 -0.938967 14.232878 -3.119700 -41.475925 4.504378 -137.292575 87.411761 -132.652413 -0.504288 -9.459054 -2.520187 0.084109 -0.036536 0.113905 -0.822458 -37.958729 6.769954 74.062939 83.443593 64.282080 -4.816665 -12.332577 9.141738 0.535717 1.549450 0.251635
